# xmcd
#
# Track frame offsets:
#	150
#	12750
#	26282
#	38800
#	53705
#	68267
#	80255
#	92715
#	104930
#	117115
#	130825
#	142427
#	157455
#	170160
#	184277
#	196710
#	209322
#	221700
#	233860
#	246620
#
# Disc length: 3449
#
# Revision: 1
# Processed by: cddbd v1.5.1PL0 Copyright (c) Steve Scherf et al.
# Submitted via: FreeRIP 2.60 
# Normalized: r0:TDELIM( - )
#
DISCID=280d7714
DTITLE=Various Artist - Original Chicago Blues
DYEAR=1900
DGENRE=Blues
TTITLE0=Bill JAzz Gillum - Is That Monkey You Got?
TTITLE1=Lightnin' Hopkins - Katty May
TTITLE2=Big Joe Wiliams - Vitamin A
TTITLE3=T-Bone Walker - I Got A Baby
TTITLE4=Arthur "Big Boy" Crudup - Chicago Blues
TTITLE5=Champion Jack Dupree - Bad Health Blues
TTITLE6=Muddy Waters - Hard Day Blues
TTITLE7=Big Bill Broonzy - Spreadin' Snakes Blues
TTITLE8=Bukka White - District Attorney Blues
TTITLE9=Dr Clayton - Pearl Harbour Blues
TTITLE10=Unknown - Million Lonesome Women
TTITLE11=Sonny Boy Williamson - Baby Please Don't Go
TTITLE12=Lonnie Johnson - Love Is The Answer
TTITLE13=Sleepy Johyn Estes - Lawyer Clark Blues
TTITLE14=Memphis Minnie - Nothin' In Rumblin
TTITLE15=Charlie Spand - Soon This Morning No 2
TTITLE16=Tampa Red - Mean Mistreater Blues
TTITLE17=Blind Boy Fuller and Sonny Terry - You Got To Have Your Dollar
TTITLE18=Sonny Terry - Screamin And Cryin Blues
TTITLE19=Big Joe Turner - I Got Discharge Papers
EXTD=
EXTT0=
EXTT1=
EXTT2=
EXTT3=
EXTT4=
EXTT5=
EXTT6=
EXTT7=
EXTT8=
EXTT9=
EXTT10=
EXTT11=
EXTT12=
EXTT13=
EXTT14=
EXTT15=
EXTT16=
EXTT17=
EXTT18=
EXTT19=
PLAYORDER=
